<svg width="16" height="15" viewBox="0 0 16 15" fill="none" xmlns="http://www.w3.org/2000/svg">
<g filter="url(#filter0_dd_28_2378)">
<path d="M14.7999 10.7557L9.33431 1.26379C9.19773 1.03124 9.00275 0.838428 8.76869 0.704454C8.53463 0.57048 8.26963 0.5 7.99994 0.5C7.73025 0.5 7.46524 0.57048 7.23118 0.704454C6.99713 0.838428 6.80214 1.03124 6.66556 1.26379L1.19994 10.7557C1.06852 10.9806 0.999268 11.2364 0.999268 11.4969C0.999268 11.7574 1.06852 12.0132 1.19994 12.2382C1.33477 12.4721 1.52942 12.666 1.76391 12.7999C1.99841 12.9338 2.2643 13.0028 2.53431 13H13.4656C13.7354 13.0026 14.001 12.9334 14.2353 12.7996C14.4695 12.6657 14.664 12.4719 14.7987 12.2382C14.9303 12.0134 14.9998 11.7576 15 11.4971C15.0002 11.2366 14.9312 10.9807 14.7999 10.7557ZM7.49994 5.50004C7.49994 5.36743 7.55262 5.24026 7.64638 5.14649C7.74015 5.05272 7.86733 5.00004 7.99994 5.00004C8.13255 5.00004 8.25972 5.05272 8.35349 5.14649C8.44726 5.24026 8.49994 5.36743 8.49994 5.50004V8.00004C8.49994 8.13265 8.44726 8.25983 8.35349 8.35359C8.25972 8.44736 8.13255 8.50004 7.99994 8.50004C7.86733 8.50004 7.74015 8.44736 7.64638 8.35359C7.55262 8.25983 7.49994 8.13265 7.49994 8.00004V5.50004ZM7.99994 11C7.8516 11 7.7066 10.9561 7.58326 10.8736C7.45992 10.7912 7.36379 10.6741 7.30703 10.5371C7.25026 10.4 7.23541 10.2492 7.26435 10.1037C7.29329 9.95824 7.36472 9.8246 7.46961 9.71971C7.5745 9.61482 7.70813 9.54339 7.85362 9.51445C7.99911 9.48551 8.14991 9.50037 8.28695 9.55713C8.42399 9.6139 8.54113 9.71003 8.62354 9.83336C8.70595 9.9567 8.74994 10.1017 8.74994 10.25C8.74994 10.449 8.67092 10.6397 8.53027 10.7804C8.38962 10.921 8.19885 11 7.99994 11Z" fill="#FB7185"/>
</g>
<defs>
<filter id="filter0_dd_28_2378" x="-3.00073" y="0.5" width="22.0007" height="20.5001" filterUnits="userSpaceOnUse" color-interpolation-filters="sRGB">
<feFlood flood-opacity="0" result="BackgroundImageFix"/>
<feColorMatrix in="SourceAlpha" type="matrix" values="0 0 0 0 0 0 0 0 0 0 0 0 0 0 0 0 0 0 127 0" result="hardAlpha"/>
<feOffset dy="4"/>
<feGaussianBlur stdDeviation="2"/>
<feComposite in2="hardAlpha" operator="out"/>
<feColorMatrix type="matrix" values="0 0 0 0 0 0 0 0 0 0 0 0 0 0 0 0 0 0 0.25 0"/>
<feBlend mode="normal" in2="BackgroundImageFix" result="effect1_dropShadow_28_2378"/>
<feColorMatrix in="SourceAlpha" type="matrix" values="0 0 0 0 0 0 0 0 0 0 0 0 0 0 0 0 0 0 127 0" result="hardAlpha"/>
<feOffset dy="4"/>
<feGaussianBlur stdDeviation="2"/>
<feComposite in2="hardAlpha" operator="out"/>
<feColorMatrix type="matrix" values="0 0 0 0 0 0 0 0 0 0 0 0 0 0 0 0 0 0 0.25 0"/>
<feBlend mode="normal" in2="effect1_dropShadow_28_2378" result="effect2_dropShadow_28_2378"/>
<feBlend mode="normal" in="SourceGraphic" in2="effect2_dropShadow_28_2378" result="shape"/>
</filter>
</defs>
</svg>
